<svg width="141" height="40" viewBox="0 0 141 40" fill="none" xmlns="http://www.w3.org/2000/svg">
<path d="M19.9999 40C31.0456 40 39.9999 31.0457 39.9999 20C39.9999 8.9543 31.0456 0 19.9999 0C8.95424 0 -6.10352e-05 8.9543 -6.10352e-05 20C-6.10352e-05 31.0457 8.95424 40 19.9999 40Z" fill="white" fill-opacity="0.1"/>
<path d="M18.8424 28.0463C14.9124 27.4707 11.8964 24.0828 11.8964 19.9891C11.8964 15.8954 14.9124 12.5075 18.8424 11.9322V7.69238C12.5855 8.29084 7.69232 13.5677 7.69232 19.9891C7.69232 26.4104 12.5855 31.687 18.8424 32.2858V28.0463Z" fill="white"/>
<path d="M26.9983 12L26.8892 12.3711V23.1393L26.9983 23.2483L31.9968 20.2937L26.9983 12Z" fill="white"/>
<path d="M26.9984 12L21.9999 20.2937L26.9984 23.2483V18.0217V12Z" fill="white"/>
<path d="M26.9986 24.8742L26.9371 24.9492V28.7851L26.9986 28.9648L32.0001 21.9211L26.9986 24.8742Z" fill="white"/>
<path d="M26.9984 28.9648V24.8742L21.9999 21.9211L26.9984 28.9648Z" fill="white"/>
<path d="M26.9984 23.2482L31.9968 20.2937L26.9984 18.0217V23.2482Z" fill="white"/>
<path d="M21.9999 20.2937L26.9983 23.2482V18.0217L21.9999 20.2937Z" fill="white"/>
<path d="M58.632 27C58.5253 27 58.4347 26.9627 58.36 26.888C58.2853 26.8134 58.248 26.7227 58.248 26.616V16.184C58.248 16.0667 58.2853 15.976 58.36 15.912C58.4347 15.8374 58.5253 15.8 58.632 15.8H60.12C60.2373 15.8 60.328 15.8374 60.392 15.912C60.4667 15.976 60.504 16.0667 60.504 16.184V25.096H65.576C65.6933 25.096 65.7893 25.1334 65.864 25.208C65.9387 25.2827 65.976 25.3787 65.976 25.496V26.616C65.976 26.7334 65.9387 26.8294 65.864 26.904C65.7893 26.968 65.6933 27 65.576 27H58.632Z" fill="white"/>
<path d="M66.8412 27C66.7559 27 66.6759 26.968 66.6012 26.904C66.5372 26.84 66.5052 26.76 66.5052 26.664L66.5372 26.5201L70.3932 16.2C70.4679 15.9334 70.6546 15.8 70.9532 15.8H72.6972C72.9746 15.8 73.1612 15.9334 73.2572 16.2L77.1132 26.5201C77.1239 26.5521 77.1292 26.6 77.1292 26.664C77.1292 26.76 77.0972 26.84 77.0332 26.904C76.9692 26.968 76.8946 27 76.8092 27H75.4172C75.2786 27 75.1719 26.968 75.0972 26.904C75.0226 26.84 74.9746 26.7707 74.9532 26.696L74.2012 24.744H69.4492L68.6972 26.696C68.6119 26.8987 68.4572 27 68.2332 27H66.8412ZM73.6412 22.904L71.8172 17.96L70.0092 22.904H73.6412Z" fill="white"/>
<path d="M79.007 27C78.9003 27 78.8097 26.9627 78.735 26.888C78.6603 26.8134 78.623 26.7227 78.623 26.616V16.2C78.623 16.0827 78.655 15.9867 78.719 15.912C78.7937 15.8374 78.8897 15.8 79.007 15.8H80.239C80.367 15.8 80.463 15.8267 80.527 15.88C80.591 15.9227 80.6497 15.9814 80.703 16.056L85.311 23.224V16.2C85.311 16.0827 85.343 15.9867 85.407 15.912C85.4817 15.8374 85.5777 15.8 85.695 15.8H87.039C87.1563 15.8 87.2523 15.8374 87.327 15.912C87.4017 15.9867 87.439 16.0827 87.439 16.2V26.6C87.439 26.7174 87.4017 26.8134 87.327 26.888C87.2523 26.9627 87.1617 27 87.055 27H85.807C85.6257 27 85.471 26.9147 85.343 26.7441L80.751 19.736V26.616C80.751 26.7334 80.7137 26.8294 80.639 26.904C80.5643 26.968 80.4683 27 80.351 27H79.007Z" fill="white"/>
<path d="M92.7835 27C92.6768 27 92.5862 26.9627 92.5115 26.888C92.4368 26.8134 92.3995 26.7227 92.3995 26.616V17.768H89.4395C89.3328 17.768 89.2422 17.7307 89.1675 17.656C89.0928 17.5814 89.0555 17.4907 89.0555 17.384V16.2C89.0555 16.0827 89.0875 15.9867 89.1515 15.912C89.2262 15.8374 89.3222 15.8 89.4395 15.8H97.5995C97.7168 15.8 97.8128 15.8374 97.8875 15.912C97.9622 15.9867 97.9995 16.0827 97.9995 16.2V17.384C97.9995 17.4907 97.9622 17.5814 97.8875 17.656C97.8128 17.7307 97.7168 17.768 97.5995 17.768H94.6555V26.616C94.6555 26.7227 94.6182 26.8134 94.5435 26.888C94.4688 26.9627 94.3728 27 94.2555 27H92.7835Z" fill="white"/>
<path d="M100.007 27C99.9003 27 99.8097 26.9627 99.735 26.888C99.6603 26.8134 99.623 26.7227 99.623 26.616V16.2C99.623 16.0827 99.655 15.9867 99.719 15.912C99.7937 15.8374 99.8897 15.8 100.007 15.8H104.151C105.452 15.8 106.471 16.104 107.207 16.712C107.954 17.32 108.327 18.184 108.327 19.304C108.327 20.0827 108.135 20.7387 107.751 21.272C107.378 21.7947 106.855 22.1734 106.183 22.408L108.519 26.488C108.551 26.552 108.567 26.6107 108.567 26.664C108.567 26.76 108.53 26.84 108.455 26.904C108.391 26.968 108.316 27 108.231 27H106.775C106.604 27 106.471 26.9627 106.375 26.888C106.29 26.8134 106.21 26.7067 106.135 26.568L104.071 22.776H101.847V26.616C101.847 26.7227 101.81 26.8134 101.735 26.888C101.671 26.9627 101.58 27 101.463 27H100.007ZM104.103 20.968C104.743 20.968 105.223 20.824 105.543 20.536C105.874 20.248 106.039 19.832 106.039 19.288C106.039 18.744 105.874 18.3227 105.543 18.024C105.223 17.7254 104.743 17.576 104.103 17.576H101.847V20.968H104.103Z" fill="white"/>
<path d="M109.701 27C109.615 27 109.535 26.968 109.461 26.904C109.397 26.84 109.365 26.76 109.365 26.664L109.397 26.5201L113.253 16.2C113.327 15.9334 113.514 15.8 113.813 15.8H115.557C115.834 15.8 116.021 15.9334 116.117 16.2L119.973 26.5201C119.983 26.5521 119.989 26.6 119.989 26.664C119.989 26.76 119.957 26.84 119.893 26.904C119.829 26.968 119.754 27 119.669 27H118.277C118.138 27 118.031 26.968 117.957 26.904C117.882 26.84 117.834 26.7707 117.813 26.696L117.061 24.744H112.309L111.557 26.696C111.471 26.8987 111.317 27 111.093 27H109.701ZM116.501 22.904L114.677 17.96L112.869 22.904H116.501Z" fill="white"/>
<path d="M121.866 27C121.76 27 121.669 26.9627 121.594 26.888C121.52 26.8134 121.482 26.7227 121.482 26.616V16.2C121.482 16.0827 121.514 15.9867 121.578 15.912C121.653 15.8374 121.749 15.8 121.866 15.8H125.77C128.906 15.8 130.506 17.2507 130.57 20.152C130.592 20.7707 130.602 21.1867 130.602 21.4C130.602 21.6027 130.592 22.0134 130.57 22.632C130.528 24.1254 130.128 25.2294 129.37 25.944C128.613 26.648 127.44 27 125.85 27H121.866ZM125.77 25.16C126.666 25.16 127.312 24.9627 127.706 24.568C128.101 24.1627 128.309 23.5014 128.33 22.584C128.352 21.944 128.362 21.544 128.362 21.384C128.362 21.2134 128.352 20.8187 128.33 20.2C128.309 19.3254 128.085 18.68 127.658 18.264C127.242 17.848 126.586 17.64 125.69 17.64H123.706V25.16H125.77Z" fill="white"/>
<path d="M133.116 27C133.01 27 132.919 26.9627 132.844 26.888C132.77 26.8134 132.732 26.7227 132.732 26.616V16.2C132.732 16.0827 132.764 15.9867 132.828 15.912C132.903 15.8374 132.999 15.8 133.116 15.8H140.156C140.274 15.8 140.37 15.8374 140.444 15.912C140.519 15.9867 140.556 16.0827 140.556 16.2V17.256C140.556 17.3734 140.519 17.4694 140.444 17.544C140.37 17.608 140.274 17.64 140.156 17.64H134.892V20.472H139.804C139.922 20.472 140.018 20.5094 140.092 20.584C140.167 20.648 140.204 20.7387 140.204 20.856V21.848C140.204 21.9654 140.167 22.0614 140.092 22.136C140.018 22.2 139.922 22.232 139.804 22.232H134.892V25.16H140.284C140.402 25.16 140.498 25.1974 140.572 25.272C140.647 25.3467 140.684 25.4427 140.684 25.56V26.616C140.684 26.7334 140.647 26.8294 140.572 26.904C140.498 26.968 140.402 27 140.284 27H133.116Z" fill="white"/>
</svg>
